<?xml version="1.0" encoding="utf-8"?>
<!-- Generator: Adobe Illustrator 19.0.0, SVG Export Plug-In . SVG Version: 6.00 Build 0)  -->
<svg version="1.1" id="layer" xmlns="http://www.w3.org/2000/svg" xmlns:xlink="http://www.w3.org/1999/xlink" x="0px" y="0px"
	 viewBox="-153 -46 652 652" style="enable-background:new -153 -46 652 652;" xml:space="preserve">
<style type="text/css">
	.st0{fill-rule:evenodd;clip-rule:evenodd;fill:#005BAC;}
	.st1{fill-rule:evenodd;clip-rule:evenodd;fill:#42A736;}
	.st2{fill-rule:evenodd;clip-rule:evenodd;fill:#003C88;}
	.st3{fill:#003C88;}
	.st4{fill:#005BAC;}
</style>
<path class="st0" d="M457.4,237.5c-9.4,10.3-23,20.4-39.7,28.8c-22.5,11.3-46.1,17.2-65.6,17.4l10.3-14.9
	c13.1-0.9,28.8-5.2,44.3-12.6c13.2-6.3,24.4-13.9,32.4-21.7L457.4,237.5z M363.5,198c42.5-21.3,89.1-23.3,104-4.4
	c8.3,10.4,5.2,25-6.4,39.6l-17.9-2.9c8.9-10.2,12.3-20.2,7.9-27.5c-8.4-13.9-41.9-12.4-74.9,3.3c-6.8,3.2-13.1,6.9-18.6,10.6
	l-16.9-4.8C347.4,206.9,355.1,202.2,363.5,198z"/>
<path class="st1" d="M344.8,283.6c-13.9-0.9-25.1-5.2-31.1-12.8c-11.1-14.1-1.6-35.7,21.4-54.6l16.7,4.8
	c-17.4,13.6-26,28.7-19.9,38.7c3.6,6,12,9.2,23,9.5L344.8,283.6z"/>
<path class="st1" d="M383.4,217.8c17.5-8.3,35.3-9.1,39.8-1.7c4.5,7.4-6.1,20.1-23.6,28.5c-17.5,8.3-35.4,9.1-39.8,1.7
	C355.3,238.9,365.9,226.1,383.4,217.8 M379.1,210.7c26.8-12.8,54.1-14,61-2.7c6.8,11.3-9.4,30.8-36.2,43.6
	c-26.8,12.8-54.1,14-61,2.7C336.1,243,352.3,223.5,379.1,210.7z"/>
<path class="st2" d="M355.9,225.5l33.4,2.4l-32.8,33.7c-6.4-1-11.2-3.4-13.6-7.3C338.4,246.8,343.9,235.8,355.9,225.5"/>
<path class="st3" d="M166.7,363.6c-2.8,6.1-7.2,10.7-13.1,14.1c-6,3.3-13,5-21,5c-11,0-19.9-3.1-26.7-9.2
	c-6.7-6.1-10.1-14.2-10.1-24.2c0-10.2,3.3-18.4,9.9-24.7c6.6-6.3,15.3-9.4,26.1-9.4c11.5,0,20.4,3.3,26.9,9.8
	c6.4,6.5,9.6,15.6,9.6,27.1v1.6l-50,0.1c0.4,4,1.8,7.1,4.4,9.4c2.6,2.3,5.9,3.4,10.1,3.4c3,0,5.7-0.6,7.9-1.8
	c2.2-1.2,3.9-2.9,5.1-5.1L166.7,363.6z M118,343.8h28.4c-0.5-4.1-2.1-7.4-4.6-9.6c-2.5-2.3-5.8-3.4-9.9-3.4c-3.9,0-7.1,1.2-9.6,3.5
	C119.8,336.7,118.4,339.8,118,343.8z M91.1,371.6c-3.8,3.8-8,6.6-12.5,8.4c-4.5,1.8-9.5,2.7-15.1,2.7c-10.7,0-19.3-3.1-25.9-9.3
	c-6.6-6.2-9.9-14.4-9.9-24.4c0-10.1,3.3-18.2,9.9-24.4c6.6-6.2,15.2-9.3,25.9-9.3c5.3,0,10.1,0.8,14.4,2.3c4.3,1.6,8.3,3.9,11.8,7.1
	l-12.9,13.8c-1.6-1.8-3.5-3.2-5.6-4.2c-2.1-1-4.2-1.4-6.4-1.4c-4.4,0-8,1.5-10.9,4.6c-2.9,3.1-4.4,6.9-4.4,11.6
	c0,4.7,1.4,8.6,4.3,11.6c2.9,3,6.5,4.5,10.9,4.5c2.7,0,5.1-0.6,7.4-1.9c2.2-1.3,4.1-3.1,5.6-5.4L91.1,371.6z M-4.7,381.1v-64.4H17
	v64.4H-4.7z M-5.7,300c0-3.2,1.2-5.9,3.4-8.1c2.3-2.2,5.1-3.3,8.3-3.3c3.3,0,6,1.1,8.3,3.3c2.3,2.2,3.4,4.9,3.4,8.1
	c0,3.1-1.2,5.8-3.4,8c-2.3,2.2-5.1,3.3-8.3,3.3c-3.2,0-5.9-1.1-8.3-3.4C-4.5,305.8-5.7,303.1-5.7,300z M-41.7,381.1v-91.6h21.6v91.6
	H-41.7z M-78.4,381.1v-8.8c-1.3,3.2-3.4,5.6-6.5,7.3c-3.1,1.7-6.8,2.5-11.2,2.5c-4.4,0-8.5-0.8-12.4-2.5c-3.9-1.6-7.4-4-10.4-7.1
	c-2.9-3-5.1-6.5-6.6-10.6c-1.5-4.1-2.3-8.5-2.3-13.2c0-5,0.7-9.4,2-13.2c1.4-3.8,3.4-7.3,6.3-10.3c3-3.2,6.5-5.6,10.4-7.3
	c3.9-1.7,8-2.5,12.4-2.5c4.4,0,8.2,0.8,11.4,2.4c3.2,1.6,5.7,4,7.5,7.2v-8.4H-57v64.4H-78.4z M-91.9,366.2c3.9,0,7.3-1.7,10-5
	c2.7-3.3,4.1-7.4,4.1-12.4c0-5-1.4-9.1-4.1-12.4c-2.7-3.3-6-5-10-5c-4,0-7.4,1.6-10,4.9c-2.7,3.3-4,7.4-4,12.5c0,5,1.3,9.2,4,12.5
	C-99.2,364.6-95.9,366.2-91.9,366.2z"/>
<path class="st4" d="M438.2,363.6c-2.8,6.1-7.2,10.7-13.1,14.1c-6,3.3-13,5-21,5c-11,0-19.9-3.1-26.7-9.2
	c-6.7-6.1-10.1-14.2-10.1-24.2c0-10.2,3.3-18.4,9.9-24.7c6.6-6.3,15.3-9.4,26.1-9.4c11.5,0,20.4,3.3,26.9,9.8
	c6.4,6.5,9.6,15.5,9.6,27.1v1.6l-50,0.1c0.4,4,1.8,7.1,4.4,9.4c2.6,2.3,5.9,3.4,10.1,3.4c3,0,5.7-0.6,7.9-1.8
	c2.2-1.2,3.9-2.9,5.1-5.1L438.2,363.6z M389.5,343.8h28.4c-0.5-4.1-2.1-7.4-4.6-9.6c-2.5-2.3-5.8-3.4-9.9-3.4
	c-3.9,0-7.1,1.2-9.6,3.5C391.3,336.7,389.9,339.8,389.5,343.8z M318.6,316.7v38.5c0,3.4,0.7,5.9,2.1,7.7c1.4,1.8,3.5,2.6,6.3,2.6
	c2.8,0,4.9-0.9,6.4-2.6c1.4-1.8,2.2-4.3,2.2-7.7v-38.5h21.7v40.7c0,8-2.6,14.2-7.9,18.7c-5.3,4.5-12.7,6.7-22.3,6.7
	c-9.6,0-17-2.2-22.2-6.6c-5.3-4.4-7.9-10.7-7.9-18.7v-40.7H318.6z M260.5,381.1v-91.6h21.6v91.6H260.5z M213.9,331.6
	c-4,0-7.3,1.6-10,4.9c-2.7,3.2-4,7.4-4,12.4c0,5.1,1.3,9.3,4,12.6c2.7,3.3,6,5,9.9,5c4,0,7.3-1.7,10-5c2.7-3.3,4-7.5,4-12.6
	c0-5.1-1.3-9.2-4-12.4C221.3,333.2,217.9,331.6,213.9,331.6z M200.4,289.5v36c1.3-3.2,3.4-5.6,6.5-7.3c3.1-1.7,6.8-2.5,11.2-2.5
	c4.3,0,8.4,0.8,12.3,2.5c3.9,1.6,7.3,4,10.4,7.1c3,3,5.2,6.5,6.7,10.6c1.5,4,2.3,8.4,2.3,13.1c0,5-0.7,9.4-2.1,13.3
	c-1.4,3.9-3.4,7.3-6.2,10.4c-3,3.2-6.5,5.6-10.4,7.3c-3.9,1.7-8,2.5-12.3,2.5c-4.6,0-8.6-0.9-12-2.8c-3.4-1.8-5.8-4.3-7-7.4v9H179
	v-91.6H200.4z"/>
<path class="st1" d="M6,285c7.6,0,13.8,6,13.8,13.3S13.6,311.6,6,311.6c-7.6,0-13.8-6-13.8-13.3S-1.6,285,6,285"/>
</svg>
